<?xml version="1.0" encoding="utf-8"?>
<!-- Svg Vector Icons : http://www.onlinewebfonts.com/icon -->
<!DOCTYPE svg PUBLIC "-//W3C//DTD SVG 1.1//EN" "http://www.w3.org/Graphics/SVG/1.1/DTD/svg11.dtd">
<svg version="1.1" xmlns="http://www.w3.org/2000/svg" xmlns:xlink="http://www.w3.org/1999/xlink" x="0px" y="0px" viewBox="0 0 1000 1000" enable-background="new 0 0 1000 1000" xml:space="preserve">
<metadata> Svg Vector Icons : http://www.onlinewebfonts.com/icon </metadata>
<g><g transform="translate(0.000000,511.000000) scale(0.100000,-0.100000)"><path d="M432.3,4167.7c-122.4-10.2-135.1-15.3-135.1-71.4c0-33.1,33.1-573.7,76.5-1203.4C541.9,343.3,544.5-485.3,396.6-1818.7c-51-479.3-170.8-1257-255-1667.4c-28-132.6-45.9-244.8-40.8-247.3c15.3-17.9,362-81.6,372.2-71.4c7.7,7.7,48.5,204,91.8,438.5l79,425.8l966.3,7.6l968.8,5.1l-7.6-254.9c-10.2-239.6,33.1-560.9,96.9-726.6l22.9-61.2l160.6,63.7c89.2,35.7,168.3,73.9,178.5,84.2c10.2,7.6,0,84.1-20.4,168.3c-61.2,232-35.7,762.3,61.2,1274.8c122.4,634.8,140.2,803.1,124.9,1167.7c-15.3,425.8-112.2,747-303.4,1019.8l-48.5,68.8h-968.8H909.1V62.8C909.1,473.3,853,1613,781.6,2694c-102,1562.9-94.3,1491.5-163.2,1486.4C590.4,4177.9,503.7,4172.8,432.3,4167.7z M2762.6-829.5c63.7-209,58.6-764.9-12.7-1142.2c-28.1-153-71.4-387.5-94.3-515l-45.9-237.1h-963.8c-532.8,0-966.3,2.6-966.3,7.7c0,2.5,22.9,165.7,51,362.1c53.5,385,114.7,989.2,140.2,1409.9l17.9,260.1H1804h912.7L2762.6-829.5z"/><path d="M9302.3,3721.5c-17.9-255-61.2-889.8-94.3-1409.9c-35.7-517.6-71.4-1279.9-81.6-1687.8l-15.3-747h-966.3h-963.7l-99.4-150.4c-124.9-193.8-224.4-499.7-257.5-790.4c-33.1-298.3-2.5-624.6,117.3-1279.9c112.2-622.1,135.1-1009.6,76.5-1282.4c-25.5-109.6-40.8-201.4-35.7-204c2.5-5.1,84.1-35.7,178.5-73.9L7334-3968l38.2,130c61.2,204,94.3,520.1,76.5,726.6l-15.3,183.6h971.4c532.9,0,968.8-5.1,968.8-10.2c0-25.5,158.1-869.4,163.2-877.1c10.2-10.2,346.7,63.8,362,79c7.7,7.6-25.5,247.3-76.5,532.9c-265.1,1501.7-349.3,2633.7-298.3,4000.3c25.5,678.2,158.1,2855.5,193.8,3217.6l15.3,145.3h-109.6c-61.2,0-150.4,7.6-198.9,15.3l-91.8,15.3L9302.3,3721.5z M9149.3-1028.4c20.4-354.4,107.1-1175.4,158.1-1496.6l33.1-198.9h-963.7h-963.8l-25.5,135.1c-198.9,989.3-229.5,1514.5-104.5,1840.8l25.5,63.7l910.2-5.1l912.7-7.6L9149.3-1028.4z"/><path d="M1164,1967.4v-204h1193.2h1190.7l137.7-204l135.1-204h507.4h507.4v-2447.6v-2447.6h-196.3c-175.9,0-224.4-10.2-407.9-94.3l-211.6-96.9V-3838v-109.6h1019.8h1019.8v102c0,102,0,102-204,204c-186.1,94.3-219.3,102-407.9,102h-204v2447.6v2447.6h507.3h504.8l135.1,204l135.1,204H7719h1195.8v204v204H5039.4H1164V1967.4z"/></g></g>
</svg>